<svg width="24" height="24" viewBox="0 0 24 24" fill="none" xmlns="http://www.w3.org/2000/svg" data-seed-icon="true" data-seed-icon-version="0.7.3">
  <g>
    <g>
      <path fill-rule="evenodd" clip-rule="evenodd" d="M1.3999 5.9999C1.3999 3.45939 3.45939 1.3999 5.9999 1.3999H17.9999C20.5404 1.3999 22.5999 3.45939 22.5999 5.9999V17.9999C22.5999 20.5404 20.5404 22.5999 17.9999 22.5999H5.9999C3.45939 22.5999 1.3999 20.5404 1.3999 17.9999V5.9999ZM5.9999 2.5999C4.12213 2.5999 2.5999 4.12213 2.5999 5.9999V17.9999C2.5999 19.8777 4.12213 21.3999 5.9999 21.3999H17.9999C19.8777 21.3999 21.3999 19.8777 21.3999 17.9999V5.9999C21.3999 4.12213 19.8777 2.5999 17.9999 2.5999H5.9999Z" fill="currentColor"/>
      <path fill-rule="evenodd" clip-rule="evenodd" d="M14.6486 7.86224C15.3167 8.47703 15.7098 9.38898 15.5728 10.4771C15.4281 11.6259 14.5711 12.2114 14.0356 12.5772C13.9929 12.6064 13.9521 12.6342 13.914 12.6608C13.3263 13.0706 13.0895 13.3032 13.0895 13.7999C13.0895 14.2417 12.7313 14.5999 12.2895 14.5999C11.8476 14.5999 11.4895 14.2417 11.4895 13.7999C11.4895 12.4253 12.3938 11.7702 12.9989 11.3483C13.6762 10.8761 13.9341 10.6841 13.9853 10.2772C14.0557 9.71802 13.8639 9.31447 13.5651 9.03959C13.2473 8.74709 12.7838 8.58191 12.3234 8.60144C11.3474 8.64285 10.5999 9.38242 10.5999 10.2013C10.5999 10.6431 10.2417 11.0013 9.7999 11.0013C9.35808 11.0013 8.9999 10.6431 8.9999 10.2013C8.9999 8.3651 10.5926 7.07343 12.2556 7.00288C13.1147 6.96643 13.9997 7.26508 14.6486 7.86224Z" fill="currentColor"/>
      <path d="M13.2603 16.1998C13.2603 16.73 12.8305 17.1598 12.3003 17.1598C11.7701 17.1598 11.3403 16.73 11.3403 16.1998C11.3403 15.6696 11.7701 15.2398 12.3003 15.2398C12.8305 15.2398 13.2603 15.6696 13.2603 16.1998Z" fill="currentColor"/>
    </g>
  </g>
</svg>
