<svg width="24" height="24" viewBox="0 0 24 24" fill="none" xmlns="http://www.w3.org/2000/svg" data-seed-icon="true" data-seed-icon-version="0.7.3">
  <g>
    <path fill-rule="evenodd" clip-rule="evenodd" d="M2.99995 18.2H1.99995C1.55812 18.2 1.19995 18.5582 1.19995 19C1.19995 19.4418 1.55812 19.8 1.99995 19.8H22.8954C23.3373 19.8 23.6954 19.4418 23.6954 19C23.6954 18.5582 23.3373 18.2 22.8954 18.2H22V7C22 5.89543 21.1045 5 20 5H4.99995C3.89538 5 2.99995 5.89543 2.99995 7V18.2ZM20 6.6H4.99995C4.77904 6.6 4.59995 6.77909 4.59995 7V14.4028H20.4V7C20.4 6.77909 20.2209 6.6 20 6.6ZM9.5521 16.4924C9.5521 16.2163 9.77596 15.9924 10.0521 15.9924H14.7536C15.0297 15.9924 15.2536 16.2163 15.2536 16.4924C15.2536 16.7686 15.0297 16.9924 14.7536 16.9924H10.0521C9.77596 16.9924 9.5521 16.7686 9.5521 16.4924Z" fill="currentColor"/>
  </g>
</svg>
