<svg width="24" height="24" viewBox="0 0 24 24" fill="none" xmlns="http://www.w3.org/2000/svg" data-seed-icon="true" data-seed-icon-version="0.7.3">
  <g>
    <path fill-rule="evenodd" clip-rule="evenodd" d="M7.67993 4.59979V5.68018H6.79805C6.51513 5.68018 6.23969 5.77108 6.01235 5.93948L2.81433 8.30838C2.47825 8.55733 2.28003 8.95083 2.28003 9.36908V19.0002C2.28003 20.7233 3.6769 22.1202 5.40003 22.1202H18.6C20.3232 22.1202 21.72 20.7233 21.72 19.0002V9.36908C21.72 8.95083 21.5218 8.55733 21.1857 8.30838L17.9877 5.93948C17.7604 5.77108 17.4849 5.68018 17.202 5.68018H16.3199V4.59979C16.3199 3.87077 15.7289 3.27979 14.9999 3.27979H8.99993C8.27092 3.27979 7.67993 3.87077 7.67993 4.59979ZM9.11993 4.71979V5.68018H14.8799V4.71979H9.11993ZM6.83765 7.12018L3.72003 9.42953V12.1602H7.67987V11.8001C7.67987 11.4024 8.00223 11.0801 8.39987 11.0801C8.79752 11.0801 9.11987 11.4024 9.11987 11.8001V12.1602H14.8798V11.8001C14.8798 11.4024 15.2022 11.0801 15.5998 11.0801C15.9975 11.0801 16.3198 11.4024 16.3198 11.8001V12.1602H20.28V9.42952L17.1624 7.12018H6.83765ZM14.8798 13.6002V14.2001C14.8798 14.5977 15.2022 14.9201 15.5998 14.9201C15.9975 14.9201 16.3198 14.5977 16.3198 14.2001V13.6002H20.28V19.0002C20.28 19.928 19.5279 20.6802 18.6 20.6802H5.40003C4.47219 20.6802 3.72003 19.928 3.72003 19.0002V13.6002H7.67987V14.2001C7.67987 14.5977 8.00223 14.9201 8.39987 14.9201C8.79752 14.9201 9.11987 14.5977 9.11987 14.2001V13.6002H14.8798Z" fill="currentColor"/>
  </g>
</svg>
