<svg width="24" height="24" viewBox="0 0 24 24" fill="none" xmlns="http://www.w3.org/2000/svg" data-seed-icon="true" data-seed-icon-version="0.7.3">
  <g>
    <g>
      <path d="M7.17495 8.45474C7.17495 5.90713 9.31179 3.8002 12 3.8002C12.3331 3.8002 12.6576 3.83267 12.9704 3.89424C13.404 3.97958 13.8246 3.69732 13.9099 3.26381C13.9952 2.8303 13.713 2.4097 13.2795 2.32437C12.8653 2.24284 12.4373 2.2002 12 2.2002C8.47491 2.2002 5.57495 4.97742 5.57495 8.45474C5.57495 10.0808 6.21216 11.5573 7.24915 12.6655C4.24649 14.2869 2.19995 17.4037 2.19995 21.0002C2.19995 21.442 2.55812 21.8002 2.99995 21.8002H21C21.4418 21.8002 21.7999 21.442 21.7999 21.0002C21.7999 16.9533 19.2087 13.5137 15.5799 12.1288C15.1671 11.9713 14.7047 12.1782 14.5472 12.591C14.3897 13.0038 14.5966 13.4661 15.0094 13.6236C17.8152 14.6945 19.8482 17.2089 20.1587 20.2002H3.84125C4.15172 17.2089 6.18468 14.6945 8.99053 13.6236C9.267 13.5181 9.46265 13.2686 9.49917 12.9749C9.53568 12.6813 9.4071 12.3914 9.16488 12.2214C7.95185 11.37 7.17495 9.99601 7.17495 8.45474Z" fill="currentColor"/>
      <path d="M17 3.19971C17.4419 3.19971 17.8 3.55788 17.8 3.99971V6.19971H20C20.4418 6.19971 20.8 6.55788 20.8 6.99971C20.8 7.44153 20.4418 7.79971 20 7.79971H17.8V9.99971C17.8 10.4415 17.4419 10.7997 17 10.7997C16.5582 10.7997 16.2 10.4415 16.2 9.99971V7.79971H14C13.5581 7.79971 13.2 7.44153 13.2 6.99971C13.2 6.55788 13.5581 6.19971 14 6.19971H16.2V3.99971C16.2 3.55788 16.5582 3.19971 17 3.19971Z" fill="currentColor"/>
    </g>
  </g>
</svg>
