<svg width="24" height="24" viewBox="0 0 24 24" fill="none" xmlns="http://www.w3.org/2000/svg" data-seed-icon="true" data-seed-icon-version="0.7.3">
  <g>
    <path fill-rule="evenodd" clip-rule="evenodd" d="M5.9999 1.3999C3.45939 1.3999 1.3999 3.45939 1.3999 5.9999V17.9999C1.3999 20.5404 3.45939 22.5999 5.9999 22.5999H17.9999C20.5404 22.5999 22.5999 20.5404 22.5999 17.9999V5.9999C22.5999 3.45939 20.5404 1.3999 17.9999 1.3999H5.9999ZM15.5728 10.4772C15.7098 9.38908 15.3166 8.47712 14.6486 7.86234C13.9996 7.26518 13.1146 6.96653 12.2555 7.00298C10.5926 7.07353 8.99988 8.3652 8.99988 10.2014C8.99988 10.6432 9.35805 11.0014 9.79988 11.0014C10.2417 11.0014 10.5999 10.6432 10.5999 10.2014C10.5999 9.38251 11.3474 8.64295 12.3234 8.60154C12.7837 8.58201 13.2473 8.74718 13.5651 9.03969C13.8638 9.31457 14.0557 9.71812 13.9853 10.2773C13.9341 10.6842 13.6762 10.8762 12.9989 11.3484C12.3937 11.7703 11.4895 12.4254 11.4895 13.8C11.4895 14.2418 11.8476 14.6 12.2895 14.6C12.7313 14.6 13.0895 14.2418 13.0895 13.8C13.0895 13.3033 13.3262 13.0707 13.914 12.6609C13.9519 12.6344 13.9925 12.6068 14.0351 12.5777C14.5705 12.2119 15.4281 11.626 15.5728 10.4772ZM12.3003 17.1599C12.8305 17.1599 13.2603 16.7301 13.2603 16.1999C13.2603 15.6697 12.8305 15.2399 12.3003 15.2399C11.7701 15.2399 11.3403 15.6697 11.3403 16.1999C11.3403 16.7301 11.7701 17.1599 12.3003 17.1599Z" fill="currentColor"/>
  </g>
</svg>
