<svg width="24" height="24" viewBox="0 0 24 24" fill="none" xmlns="http://www.w3.org/2000/svg" data-seed-icon="true" data-seed-icon-version="0.7.3">
  <g>
    <path d="M15.7071 2.29289C15.3166 1.90237 14.6834 1.90237 14.2929 2.29289C13.9024 2.68342 13.9024 3.31658 14.2929 3.70711L17.5858 7H8C5.23858 7 3 9.23858 3 12V22C3 22.5523 3.44772 23 4 23C4.55228 23 5 22.5523 5 22V12C5 10.3431 6.34315 9 8 9H17.5858L14.2929 12.2929C13.9024 12.6834 13.9024 13.3166 14.2929 13.7071C14.6834 14.0976 15.3166 14.0976 15.7071 13.7071L20.7071 8.70711C21.0976 8.31658 21.0976 7.68342 20.7071 7.29289L15.7071 2.29289Z" fill="currentColor"/>
  </g>
</svg>
