<svg width="24" height="24" viewBox="0 0 24 24" fill="none" xmlns="http://www.w3.org/2000/svg" data-seed-icon="true" data-seed-icon-version="0.7.3">
  <g>
    <path d="M7.95145 16.6249C7.88449 16.3654 7.74921 16.1285 7.55967 15.939C7.37014 15.7495 7.13327 15.6142 6.87373 15.5472L2.2726 14.3607C2.1941 14.3385 2.12501 14.2912 2.07581 14.2261C2.02662 14.161 2 14.0816 2 14C2 13.9184 2.02662 13.839 2.07581 13.7739C2.12501 13.7088 2.1941 13.6615 2.2726 13.6393L6.87373 12.452C7.13318 12.3851 7.36998 12.25 7.55951 12.0606C7.74904 11.8712 7.88438 11.6345 7.95145 11.3751L9.13792 6.77393C9.15997 6.69512 9.20721 6.62569 9.27241 6.57623C9.33761 6.52677 9.4172 6.5 9.49903 6.5C9.58087 6.5 9.66046 6.52677 9.72566 6.57623C9.79086 6.62569 9.8381 6.69512 9.86015 6.77393L11.0459 11.3751C11.1128 11.6346 11.2481 11.8715 11.4376 12.061C11.6272 12.2505 11.864 12.3858 12.1236 12.4528L16.7247 13.6385C16.8038 13.6603 16.8736 13.7075 16.9233 13.7728C16.9731 13.8381 17 13.9179 17 14C17 14.0821 16.9731 14.1619 16.9233 14.2272C16.8736 14.2925 16.8038 14.3397 16.7247 14.3615L14.4242 14.9544L12.1236 15.5472C11.864 15.6142 11.6272 15.7495 11.4376 15.939C11.2481 16.1285 11.1128 16.3654 11.0459 16.6249L9.8594 21.2261C9.83735 21.3049 9.79011 21.3743 9.72491 21.4238C9.65971 21.4732 9.58012 21.5 9.49828 21.5C9.41645 21.5 9.33686 21.4732 9.27166 21.4238C9.20646 21.3743 9.15922 21.3049 9.13717 21.2261L7.95145 16.6249Z" stroke="currentColor" stroke-width="1.6" stroke-linecap="round"/>
    <path d="M17.0709 8.07496C17.0307 7.91923 16.9495 7.77711 16.8358 7.66339C16.7221 7.54967 16.58 7.4685 16.4242 7.42833L13.6636 6.71644C13.6165 6.70308 13.575 6.67471 13.5455 6.63565C13.516 6.59658 13.5 6.54896 13.5 6.5C13.5 6.45104 13.516 6.40341 13.5455 6.36435C13.575 6.32529 13.6165 6.29692 13.6636 6.28356L16.4242 5.57122C16.5799 5.53109 16.722 5.44998 16.8357 5.33635C16.9494 5.22271 17.0306 5.08068 17.0709 4.92504L17.7828 2.16436C17.796 2.11707 17.8243 2.07541 17.8634 2.04574C17.9026 2.01606 17.9503 2 17.9994 2C18.0485 2 18.0963 2.01606 18.1354 2.04574C18.1745 2.07541 18.2029 2.11707 18.2161 2.16436L18.9275 4.92504C18.9677 5.08077 19.0489 5.22289 19.1626 5.33661C19.2763 5.45033 19.4184 5.5315 19.5742 5.57167L22.3348 6.2831C22.3823 6.2962 22.4242 6.32451 22.454 6.36369C22.4838 6.40287 22.5 6.45075 22.5 6.5C22.5 6.54925 22.4838 6.59713 22.454 6.63631C22.4242 6.67549 22.3823 6.7038 22.3348 6.71689L20.9545 7.07261L19.5742 7.42833C19.4184 7.4685 19.2763 7.54967 19.1626 7.66339C19.0489 7.77711 18.9677 7.91923 18.9275 8.07496L18.2156 10.8356C18.2024 10.8829 18.1741 10.9246 18.1349 10.9543C18.0958 10.9839 18.0481 11 17.999 11C17.9499 11 17.9021 10.9839 17.863 10.9543C17.8239 10.9246 17.7955 10.8829 17.7823 10.8356L17.0709 8.07496Z" stroke="currentColor" stroke-width="1.4" stroke-linecap="round"/>
  </g>
</svg>
