<svg width="24" height="24" viewBox="0 0 24 24" fill="none" xmlns="http://www.w3.org/2000/svg" data-seed-icon="true" data-seed-icon-version="0.7.3">
  <g>
    <g>
      <path fill-rule="evenodd" clip-rule="evenodd" d="M12.0893 2.59257C12.033 2.56499 11.9669 2.56499 11.9106 2.59257L3.91063 6.51571C3.84281 6.54897 3.79995 6.61704 3.79995 6.69151V8.90726C3.79995 12.2982 4.53249 14.8251 5.87675 16.7862C7.22304 18.7502 9.23528 20.2234 11.9337 21.4144C11.9759 21.433 12.024 21.4322 12.0629 21.4149C14.7384 20.2217 16.7597 18.6103 18.1164 16.5659C19.4726 14.5225 20.2 11.9934 20.2 8.90726V6.69151C20.2 6.61704 20.1571 6.54897 20.0893 6.51571L12.0893 2.59257ZM11.196 1.18616C11.7022 0.937946 12.2977 0.937945 12.8039 1.18616L20.8039 5.10931C21.4143 5.40865 21.8 6.02128 21.8 6.69151V8.90726C21.8 12.2431 21.0106 15.0831 19.4567 17.4244C17.9035 19.765 15.6216 21.5541 12.7242 22.8462C12.2639 23.0515 11.736 23.0503 11.2781 22.8482C8.40389 21.5797 6.11316 19.9451 4.54963 17.6642C2.98407 15.3802 2.19995 12.5248 2.19995 8.90726V6.69151C2.19995 6.02128 2.58564 5.40865 3.19604 5.10931L11.196 1.18616Z" fill="currentColor"/>
      <path d="M9.5744 9.60047C9.46437 9.17256 9.02828 8.91488 8.60037 9.02491C8.17247 9.13494 7.91478 9.57103 8.02481 9.99894L8.385 11.3997H7.79966C7.35783 11.3997 6.99966 11.7578 6.99966 12.1997C6.99966 12.6415 7.35783 12.9997 7.79966 12.9997H8.79643L9.31053 14.9989C9.39854 15.3412 9.70074 15.5852 10.0539 15.5991C10.407 15.613 10.7275 15.3935 10.8421 15.0592L11.5482 12.9997H12.051L12.7571 15.0592C12.8718 15.3935 13.1922 15.613 13.5453 15.5991C13.8985 15.5852 14.2007 15.3412 14.2887 14.9989L14.8028 12.9997H15.7997C16.2415 12.9997 16.5997 12.6415 16.5997 12.1997C16.5997 11.7578 16.2415 11.3997 15.7997 11.3997H15.2142L15.5744 9.99894C15.6844 9.57103 15.4267 9.13494 14.9988 9.02491C14.5709 8.91488 14.1348 9.17256 14.0248 9.60047L13.5622 11.3997H13.1939L12.5564 9.54025C12.4455 9.21689 12.1414 8.9997 11.7996 8.9997C11.4578 8.9997 11.1537 9.21689 11.0429 9.54025L10.4053 11.3997H10.037L9.5744 9.60047Z" fill="currentColor"/>
    </g>
  </g>
</svg>
